PathFileType	4	(X/Y/Z)	/Users/niels/Desktop/University/Third Semester/Perception and Action/Exam/Gymnastics Motion Tracking/Code for Gym Tracking/Scripts/Analyzed Data/kraft_bad_id3_1_nmspeed_Sports2D/kraft_bad_id3_1_nmspeed_Sports2D_px_person00.trc
DataRate	CameraRate	NumFrames	NumMarkers	Units	OrigDataRate	OrigDataStartFrame	OrigNumFrames
49.404761904761905	49.404761904761905	8	22	m	49.404761904761905	28	84
Frame#	Time	Hip			RHip			RKnee			RAnkle			RBigToe			RSmallToe			RHeel			LHip			LKnee			LAnkle			LBigToe			LSmallToe			LHeel			Neck			Head			Nose			RShoulder			RElbow			RWrist			LShoulder			LElbow			LWrist		
		X1	Y1	Z1	X2	Y2	Z2	X3	Y3	Z3	X4	Y4	Z4	X5	Y5	Z5	X6	Y6	Z6	X7	Y7	Z7	X8	Y8	Z8	X9	Y9	Z9	X10	Y10	Z10	X11	Y11	Z11	X12	Y12	Z12	X13	Y13	Z13	X14	Y14	Z14	X15	Y15	Z15	X16	Y16	Z16	X17	Y17	Z17	X18	Y18	Z18	X19	Y19	Z19	X20	Y20	Z20	X21	Y21	Z21	X22	Y22	Z22
28	0.5667469879518072	0.5539849407720996	-0.5385483397409703	0.0	0.5311247463622194	-0.5336064466733922	0.0	0.5268706073987518	-0.6757305374924775	0.0	0.4752201023115391	-0.8179709493937107	0.0	0.5108510246294345	-0.8577169307356199	0.0	0.49173807247516305	-0.8590128139760199	0.0	0.46231489497689204	-0.8345319394147632	0.0	0.579158729107122	-0.546784248093437	0.0	0.6389706731333734	-0.6555528322864851	0.0	0.6208988703648234	-0.7865485870666923	0.0	0.642393069183962	-0.8190282620591421	0.0	0.656311355881598	-0.8134988006520286	0.0	0.59872211897896	-0.8064543415261674	0.0	0.6841531806725719	-0.43262984249554787	0.0	0.7603758395508078	-0.38195480680045896	0.0	0.7462554067555359	-0.4208503515804314	0.0	0.667408533266864	-0.4285367550956742	0.0	0.7712094367326503	-0.42758819524104774	0.0	0.85630499722329	-0.40793111399264625	0.0	0.6963288668125903	-0.4411475249658738	0.0	0.7895011936277466	-0.4478645993510675	0.0	0.8747811064456258	-0.4351484370095959	0.0
29	0.5869879518072288	0.5751399316751753	-0.5402540506086676	0.0	0.5536876940599915	-0.5355779528562864	0.0	0.5385645630694788	-0.6747550567226607	0.0	0.4800040920910303	-0.8127531437599566	0.0	0.5112666718706158	-0.8531630120565633	0.0	0.4930046975363082	-0.8539940985679458	0.0	0.46699729476534824	-0.8292378876114554	0.0	0.5985746390520273	-0.5500744676245971	0.0	0.6478193474265644	-0.6596569253332896	0.0	0.625150347322278	-0.7848969311140302	0.0	0.6352968575329045	-0.8198541059493646	0.0	0.6558121737851815	-0.8149419955137079	0.0	0.5960701391604496	-0.8042986163154884	0.0	0.712605722873661	-0.44912638260453885	0.0	0.7908173998397386	-0.40366007243382923	0.0	0.77399941610716	-0.4403943010251854	0.0	0.6986710834855994	-0.44459399157345103	0.0	0.8024409972793148	-0.4506297847053663	0.0	0.8868220032895225	-0.4379763352686282	0.0	0.7216924717609536	-0.45553074372423685	0.0	0.8139587828552135	-0.46719878502639506	0.0	0.8984804618615211	-0.45825058882222003	0.0
30	0.6072289156626506	0.596246775627114	-0.540049044763043	0.0	0.5767306642222443	-0.5357082294581444	0.0	0.5509512301029943	-0.6703184477608315	0.0	0.48587855839605965	-0.8027174875718712	0.0	0.5116909559914875	-0.8433738994206291	0.0	0.49459085975060496	-0.8438774117626787	0.0	0.4726974859672954	-0.8189742413480692	0.0	0.6172219266712776	-0.5513428033679235	0.0	0.652931919932507	-0.6617798259303944	0.0	0.6270728837969409	-0.7804115663130872	0.0	0.6243670693211998	-0.8184630576402783	0.0	0.6527584352678065	-0.8144006238153892	0.0	0.5894430728530611	-0.7995367853292653	0.0	0.7405211297730346	-0.4654905629911116	0.0	0.8196928401135982	-0.4253789178906643	0.0	0.800398522237716	-0.4600411813603773	0.0	0.7295583609254728	-0.4605899336234949	0.0	0.8325979245645712	-0.47456590511697716	0.0	0.9159533639443951	-0.4699278949524317	0.0	0.7461458621803826	-0.4699645918262681	0.0	0.8372697979775632	-0.4877242173588478	0.0	0.9201825956243779	-0.48352461815938325	0.0
31	0.6274698795180722	0.6174009977220741	-0.5381889335796565	0.0	0.600346663733868	-0.5341757925995952	0.0	0.5649123235797819	-0.6620158749161069	0.0	0.4936653060074708	-0.7870946527965376	0.0	0.5129411233453582	-0.8272790659873588	0.0	0.49733697281303946	-0.8275437186544207	0.0	0.48019682080726833	-0.8028720651062979	0.0	0.6351628910812448	-0.5507335973079265	0.0	0.6545161089424869	-0.6619066231890975	0.0	0.6269150153120142	-0.7733780511613878	0.0	0.6104341379153289	-0.8149904501878958	0.0	0.6475443686071625	-0.8119641938702886	0.0	0.5795242579031537	-0.79244604999735	0.0	0.7675048640787814	-0.48155769370504675	0.0	0.8468663054300832	-0.4469144243640989	0.0	0.8252503767914267	-0.4796592774718443	0.0	0.7596998838254767	-0.4763698321989121	0.0	0.8611647031310223	-0.49909611426521905	0.0	0.9430775618864665	-0.5033860626637561	0.0	0.7694611389428564	-0.4844961728633123	0.0	0.8590607571506905	-0.5094610465772119	0.0	0.9394041537356197	-0.51121623777879	0.0
32	0.6477108433734939	0.6387537627117447	-0.5351212232780013	0.0	0.6245664408324286	-0.53130809294526	0.0	0.5808226217059923	-0.6495970131342284	0.0	0.5037789063090347	-0.7652722652253937	0.0	0.5155980090408286	-0.8039870310593978	0.0	0.5018013171816733	-0.8039554890795395	0.0	0.4899114682762491	-0.7802181482732717	0.0	0.6526494262787816	-0.5486180944938536	0.0	0.6533868533976926	-0.6603066993335059	0.0	0.6250626699310106	-0.7645026203961043	0.0	0.5948487174137093	-0.8098834717943855	0.0	0.6406982628899118	-0.8079691947423279	0.0	0.5676095771282974	-0.7836770938170149	0.0	0.7932785380641794	-0.4971084276107414	0.0	0.8724516692661496	-0.46805494438655265	0.0	0.8485945505968324	-0.4990086156208432	0.0	0.7887535900432389	-0.4917476314652545	0.0	0.8876071149246082	-0.5238402708163787	0.0	0.9675844687740122	-0.5378060246407874	0.0	0.791564934986079	-0.4990903394875538	0.0	0.879049964771613	-0.5320948112565891	0.0	0.9558791103437309	-0.5411236635682084	0.0
33	0.6679518072289157	0.6603935938498421	-0.5314061274115127	0.0	0.649242519117098	-0.5275124142348807	0.0	0.5982212568477489	-0.6329545870763922	0.0	0.5159784899917588	-0.7367736234945405	0.0	0.5197669644329372	-0.7728710395024603	0.0	0.5080090348523371	-0.7722446466429362	0.0	0.5016759937044524	-0.7504392542423486	0.0	0.6700367657158643	-0.5455582799443562	0.0	0.6511094079642846	-0.6575870261163508	0.0	0.6220611144473961	-0.7549825263896869	0.0	0.5796717752979774	-0.8038985278151118	0.0	0.6329166661925777	-0.8030283442166839	0.0	0.5557868273161138	-0.7743352590769382	0.0	0.8176846661547271	-0.511898071086298	0.0	0.8966673756931223	-0.48857847541414035	0.0	0.8705980747632518	-0.5177899169881692	0.0	0.8163715904266109	-0.5065099068228156	0.0	0.9113875290068292	-0.548300122394714	0.0	0.9888783592188185	-0.5724193218119135	0.0	0.8125654479091238	-0.5136124015929977	0.0	0.8971296094775619	-0.5550088799177594	0.0	0.9696143861824209	-0.572526599863076	0.0
34	0.6881927710843373	0.6823107484891797	-0.5276149198179809	0.0	0.6740715141304993	-0.5231999981168035	0.0	0.6157854605563429	-0.6121210578240708	0.0	0.5293237099850123	-0.7011619940315198	0.0	0.5249165432423845	-0.7335666868762991	0.0	0.5153678162625951	-0.7317619547120827	0.0	0.5147125183164397	-0.713022512714199	0.0	0.6877233261193886	-0.5422368262183305	0.0	0.6500043288650053	-0.6546534418793025	0.0	0.6186725993935481	-0.7464478235376935	0.0	0.5676919973662592	-0.7980201137163357	0.0	0.6251238172720126	-0.7979934463863081	0.0	0.54690364731002	-0.7659319440599006	0.0	0.8407564621210823	-0.5257781818583137	0.0	0.9197849770469152	-0.5083407007908666	0.0	0.8915161416237924	-0.535816562995672	0.0	0.8422904964395328	-0.5205049986235951	0.0	0.9321537895550887	-0.5719797599920338	0.0	1.0065635794971644	-0.6063719842854767	0.0	0.8327814446358592	-0.5279059586409469	0.0	0.9134292826691061	-0.5775357760077316	0.0	0.980934893084441	-0.6043842277541512	0.0
35	0.708433734939759	0.7044508051296031	-0.5242278480380753	0.0	0.6987493470986577	-0.5187402823966444	0.0	0.6320527441904149	-0.5873564665393124	0.0	0.5428838635695267	-0.6581739212275496	0.0	0.5303624523441053	-0.686079032793905	0.0	0.5233159171076689	-0.6823310859079461	0.0	0.528297978528967	-0.6676725207237058	0.0	0.7060760657569491	-0.5393134013240433	0.0	0.6525005685118764	-0.6524535142143655	0.0	0.6159996426302043	-0.7405058748269604	0.0	0.5616473361852391	-0.7932786931351774	0.0	0.618507752236188	-0.7938592129998766	0.0	0.5437490955065543	-0.7599609327016756	0.0	0.8627179216156101	-0.5387795974173148	0.0	0.9420840899636574	-0.5273247145853103	0.0	0.9116392067294975	-0.5531173291519359	0.0	0.8664298449966749	-0.5337263147039801	0.0	0.949898612723645	-0.5945537556256965	0.0	1.0206213602621808	-0.6389295032353361	0.0	0.8526388388349168	-0.5418698831335589	0.0	0.9282039132222016	-0.5991742828047085	0.0	0.9903693062626786	-0.6356100529087367	0.0
